<mxfile host="app.diagrams.net" modified="2024-07-19T04:24:32.456Z" agent="Mozilla/5.0 (Windows NT 10.0; Win64; x64) AppleWebKit/537.36 (KHTML, like Gecko) Chrome/126.0.0.0 Safari/537.36" version="24.7.1" etag="5ivXIRUYVbQ1TSIvH3wT" type="github">
  <diagram name="Page-1" id="12-FN2A_wCFH4dU7DZUA">
    <mxGraphModel>
      <root>
        <mxCell id="0" />
        <mxCell id="1" parent="0" />
      </root>
    </mxGraphModel>
  </diagram>
</mxfile>
